<svg width="116" height="82" viewBox="0 0 116 82" fill="none" xmlns="http://www.w3.org/2000/svg">
<path d="M86.4167 48.6667C86.4167 54.8853 83.4463 60.44 78.7843 64.1093C74.2729 68.448 68.1229 71.3333 61.2917 71.3333C50.2115 71.3333 45.9208 68.3813 42.6015 65.24C42.5847 65.224 42.5652 65.208 42.5484 65.192C42.54 65.184 42.5289 65.176 42.5205 65.1653L42.5233 65.1573C42.0515 64.68 41.75 64.0427 41.75 63.3333C41.75 61.8613 43.0007 60.6667 44.5417 60.6667H50.5326C48.4472 57.3227 47.3333 53.176 47.3333 48.6667C47.3333 48.208 47.3613 47.76 47.3836 47.3093L47.3333 47.3333C38.9583 47.3333 33.375 36.6667 33.375 31.3333C33.375 29.8613 34.6257 28.6667 36.1667 28.6667C36.1667 28.6667 64.985 28.6667 65.4792 28.6667C76.5844 28.6667 85.6462 36.9307 86.3469 47.3707C86.3469 47.3707 86.4167 48.432 86.4167 48.6667Z" fill="#8D6E63"/>
<path opacity="0.3" d="M43.8438 35.3333C43.8438 34.2293 44.7818 33.3333 45.9375 33.3333C47.0933 33.3333 48.0312 34.2293 48.0312 35.3333C48.0312 36.4373 47.0933 37.3333 45.9375 37.3333C44.7818 37.3333 43.8438 36.4373 43.8438 35.3333ZM64.0833 60.6667C64.1029 59.2987 64.5998 52.6667 72.4583 52.6667V47.3333C61.4173 47.3333 58.5 56.056 58.5 60.6667H44.5417C43.0063 60.6667 41.75 61.8667 41.75 63.3333C41.75 64.0507 42.0571 64.6667 42.5317 65.1467V65.176C42.5317 65.176 42.5317 65.176 42.5596 65.2027L42.5875 65.2293C45.9096 68.3733 50.2087 71.3333 61.2917 71.3333C68.1313 71.3333 74.2729 68.4533 78.7926 64.1067C80.0796 63.0933 81.2214 61.9467 82.2292 60.6667H64.0833ZM36.1667 28.6667C34.6313 28.6667 33.375 29.8667 33.375 31.3333C33.375 32.08 33.4867 32.9333 33.71 33.84C34.045 33.9467 34.4079 34 34.7708 34C37.0879 34 38.9583 32.2133 38.9583 30C38.9583 29.52 38.8746 29.0933 38.7071 28.6667C37.1437 28.6667 36.1667 28.6667 36.1667 28.6667Z" fill="black"/>
<path d="M7.64824 28.1288L7.18262 26.9259L3.08863 19.3174L2.34122 18.266L6.51179 16.0219C7.4605 15.5114 8.3282 15.3231 9.1149 15.457C9.90593 15.5764 10.5264 16.0541 10.9762 16.8901C11.2542 17.4068 11.3675 17.9212 11.316 18.4334C11.274 18.9405 10.9971 19.4165 10.4855 19.8614L10.5613 20.0023C11.1668 19.8218 11.7538 19.8209 12.3223 19.9995C12.8951 20.1637 13.3837 20.6215 13.7881 21.373C14.1267 22.0023 14.266 22.5875 14.2058 23.1286C14.1407 23.6603 13.9191 24.149 13.5411 24.5946C13.1632 25.0402 12.6595 25.4324 12.0302 25.771L7.64824 28.1288ZM8.85407 25.3724L10.2771 24.6067C11.0004 24.2175 11.4669 23.8575 11.6765 23.5267C11.8861 23.1958 11.8595 22.7862 11.5966 22.2978C11.3338 21.8093 11.0016 21.552 10.5999 21.5259C10.2076 21.4947 9.64515 21.6763 8.91248 22.0705L7.48941 22.8362L8.85407 25.3724ZM6.60996 21.2018L7.86395 20.5271C8.43694 20.2187 8.8546 19.9032 9.11694 19.5803C9.37422 19.2481 9.3664 18.8283 9.09347 18.3211C8.82054 17.8139 8.47456 17.5761 8.05553 17.6077C7.63146 17.63 7.13293 17.7953 6.55994 18.1036L5.30595 18.7784L6.60996 21.2018Z" fill="black"/>
<path d="M17.0856 18.6603C16.7043 17.687 16.5597 16.8501 16.6519 16.1495C16.75 15.4351 17.0217 14.8418 17.4667 14.3696C17.9178 13.8836 18.491 13.5043 19.1862 13.232C19.9808 12.9207 20.6897 12.8148 21.3129 12.9143C21.9323 13.0039 22.4623 13.2602 22.903 13.6833C23.3437 14.1064 23.6982 14.6605 23.9667 15.3458C24.0523 15.5643 24.1241 15.7768 24.1821 15.9832C24.24 16.1896 24.3047 16.4278 24.376 16.6976L18.7895 18.8863L18.6144 18.4394L19.5816 16.9607L22.0248 16.0035C21.8692 15.6062 21.698 15.301 21.5114 15.0877C21.3208 14.8645 21.088 14.738 20.8129 14.7083C20.5339 14.6687 20.1808 14.7326 19.7538 14.8999C19.3764 15.0477 19.0987 15.231 18.9209 15.4496C18.7391 15.6583 18.6559 15.9429 18.6712 16.3035C18.6964 16.6602 18.8257 17.1365 19.0592 17.7324C19.2615 18.2489 19.4666 18.6554 19.6744 18.952C19.8784 19.2387 20.0979 19.4334 20.3329 19.5361C20.5778 19.6349 20.8559 19.6577 21.1673 19.6044C21.4886 19.5473 21.8578 19.437 22.2749 19.2736C22.6225 19.1374 22.9574 18.9833 23.2795 18.8113C23.5977 18.6293 23.9094 18.3869 24.2147 18.0841L24.571 18.1163L25.1663 19.6358C24.931 19.854 24.6482 20.0679 24.3179 20.2775C23.9876 20.4871 23.5444 20.7009 22.9882 20.9188C22.4022 21.1483 21.8247 21.3116 21.2555 21.4086C20.6962 21.5017 20.1585 21.4889 19.6424 21.3704C19.1323 21.238 18.6569 20.9603 18.2162 20.5372C17.7815 20.1003 17.4047 19.4747 17.0856 18.6603Z" fill="black"/>
<path d="M33.6602 17.2635L33.1246 16.1981L32.1546 12.5985C32.0574 12.2381 31.9395 11.944 31.8008 11.7162C31.6724 11.4857 31.4525 11.3461 31.1411 11.2974C30.8372 11.2357 30.3763 11.2881 29.7584 11.4546C29.4082 11.549 29.0818 11.6701 28.7792 11.8179C28.4841 11.9527 28.1809 12.1393 27.8695 12.3779L27.5189 12.3067L27.1026 10.7618C27.5142 10.4852 27.9255 10.2694 28.3367 10.1144C28.7478 9.9594 29.1079 9.84027 29.4169 9.75701C30.4571 9.47668 31.2886 9.38518 31.9114 9.48249C32.5417 9.56672 33.0302 9.82173 33.3769 10.2475C33.7209 10.663 33.99 11.2312 34.1843 11.9522L35.1501 15.5363L35.6068 16.7389L33.6602 17.2635ZM31.5473 18.0317C31.0633 18.1621 30.5701 18.2177 30.0678 18.1984C29.573 18.166 29.1263 18.0047 28.7277 17.7144C28.3263 17.4139 28.0326 16.9185 27.8467 16.2285C27.6968 15.6723 27.6753 15.2031 27.7822 14.8208C27.8966 14.4254 28.0912 14.1023 28.3661 13.8515C28.6409 13.6006 28.962 13.3981 29.3292 13.2439C29.6936 13.0795 30.0612 12.9472 30.432 12.8473C30.607 12.8002 30.799 12.754 31.0077 12.7087C31.2137 12.6532 31.4276 12.6066 31.6495 12.569L33.1921 12.8823L33.4669 13.902C33.1397 13.8355 32.8043 13.8209 32.4609 13.8582C32.1146 13.8853 31.7304 13.9557 31.3081 14.0695C30.6902 14.236 30.2733 14.4312 30.0574 14.6551C29.8388 14.8686 29.7864 15.1866 29.9002 15.6088C30.0195 16.0517 30.2236 16.3171 30.5124 16.4049C30.8087 16.4797 31.2041 16.4505 31.6985 16.3173C32.3885 16.1314 32.8757 15.8896 33.1601 15.592C33.4548 15.2917 33.6405 14.9765 33.7172 14.6465L33.9444 15.1818L32.788 17.5317C32.5856 17.6414 32.379 17.7358 32.1682 17.8147C31.9603 17.9038 31.7533 17.9762 31.5473 18.0317Z" fill="black"/>
<path d="M41.3359 15.5806L37.2336 7.96149L39.5575 7.59925L40.0708 8.81469L41.9565 12.6014L42.3132 13.9547L42.4397 13.9349L42.3676 12.5374L43.0113 8.35635L43.1304 7.04233L45.4543 6.6801L43.8654 15.1863L41.3359 15.5806Z" fill="black"/>
<path d="M49.0034 10.3851C48.9537 9.34091 49.0847 8.50175 49.3963 7.86757C49.718 7.22223 50.1652 6.74712 50.7381 6.44224C51.3211 6.1262 51.9855 5.95046 52.7313 5.915C53.5837 5.87448 54.2891 6.00112 54.8477 6.29493C55.4058 6.57808 55.8259 6.9906 56.1079 7.53248C56.39 8.07437 56.5485 8.7129 56.5834 9.44807C56.5946 9.68247 56.5945 9.90672 56.5834 10.1208C56.5722 10.3349 56.5572 10.5813 56.5384 10.8598L50.5452 11.1447L50.5224 10.6653L51.9121 9.57403L54.5332 9.44942C54.5129 9.02324 54.4485 8.67924 54.3399 8.41743C54.2309 8.14497 54.0508 7.95064 53.7996 7.83443C53.548 7.70757 53.1931 7.65503 52.735 7.67681C52.3301 7.69606 52.0084 7.78076 51.7699 7.93092C51.531 8.07043 51.361 8.31344 51.26 8.65996C51.1696 9.00598 51.1397 9.49862 51.1701 10.1379C51.1964 10.6919 51.2605 11.1427 51.3625 11.4903C51.4639 11.8272 51.6095 12.0819 51.7993 12.2544C51.9997 12.4264 52.2559 12.537 52.5679 12.5863C52.8906 12.635 53.2757 12.6487 53.7232 12.6275C54.0961 12.6097 54.4626 12.571 54.8229 12.5111C55.1826 12.4406 55.5555 12.3108 55.9416 12.1216L56.2689 12.2662L56.3464 13.8963C56.0536 14.0277 55.7172 14.1398 55.3372 14.2326C54.9572 14.3255 54.4688 14.386 53.8722 14.4144C53.2436 14.4443 52.6441 14.4141 52.0738 14.3237C51.5142 14.2328 51.0089 14.0486 50.5579 13.7711C50.117 13.4823 49.7556 13.067 49.4735 12.5252C49.2016 11.9721 49.0449 11.2587 49.0034 10.3851Z" fill="black"/>
<path d="M60.2561 14.0882L60.4803 12.8179L60.762 7.22499L60.6666 5.93856L62.3764 6.02468L62.5846 6.98036L62.9202 6.99726L62.6216 12.9257L62.6691 14.2098L60.2561 14.0882ZM61.9781 9.48102L62.0634 7.78716L63.7179 6.10827C64.0765 5.98748 64.4475 5.93675 64.831 5.95606C65.0441 5.9668 65.2507 5.99857 65.451 6.05137C65.6518 6.09353 65.8512 6.16231 66.0494 6.25773L65.9552 8.12736L65.6276 8.27107C65.4092 8.15327 65.1996 8.07329 64.9988 8.03113C64.798 7.98898 64.6177 7.96388 64.4579 7.95583C64.0212 7.93383 63.5678 8.02848 63.0979 8.23978C62.6387 8.45161 62.2654 8.86536 61.9781 9.48102Z" fill="black"/>
<path d="M76.7465 7.62405L76.1492 9.40224L73.359 15.2232L70.7767 14.7572L70.0891 3.25216L72.5454 3.69546L72.4751 4.62576L72.5834 10.8723L72.3998 12.7902L72.5573 12.8186L73.0872 10.9632L76.2645 4.52924L78.4689 4.92708L79.1651 12.0601L79.013 13.9837L79.1705 14.0121L79.6689 12.1511L81.9854 6.34215L82.2447 5.44595L84.7011 5.88925L80.0351 16.4281L77.4528 15.9621L76.842 9.52727L76.9039 7.65247L76.7465 7.62405Z" fill="black"/>
<path d="M89.9774 9.58985C89.6513 9.48885 89.4078 9.30174 89.2467 9.02853C89.0889 8.74512 89.0652 8.42511 89.1756 8.06849C89.2861 7.71188 89.485 7.4664 89.7723 7.33206C90.0627 7.18752 90.3709 7.16576 90.697 7.26676C91.023 7.36775 91.265 7.55996 91.4229 7.84336C91.5839 8.11658 91.6092 8.4315 91.4987 8.78811C91.3883 9.14473 91.1878 9.3953 90.8974 9.53983C90.6101 9.67418 90.3034 9.69085 89.9774 9.58985ZM86.1969 18.1171L86.7285 16.9417L88.234 12.0816L86.4917 11.5419L87.0219 9.83011L90.9651 11.0516L90.4335 12.2269L88.7765 17.5761L88.5506 18.8462L86.1969 18.1171Z" fill="black"/>
<path d="M91.5406 19.7871L92.1198 18.3645L96.9969 15.7204L97.6993 15.5227L97.7355 15.4337L95.1274 14.3719L94.0303 14.0116L94.7362 12.2778L100.916 14.7937L100.336 16.2163L95.3759 18.8955L94.6976 19.034L94.6614 19.1229L97.4918 20.2753L98.589 20.6356L97.8831 22.3694L91.5406 19.7871Z" fill="black"/>
<path d="M102.382 19.9036C102.875 18.9816 103.417 18.3282 104.01 17.9434C104.617 17.5543 105.245 17.3756 105.893 17.4075C106.555 17.435 107.216 17.6247 107.875 17.9766C108.627 18.3787 109.168 18.8491 109.497 19.3877C109.831 19.9169 109.98 20.4865 109.945 21.0963C109.909 21.7062 109.718 22.3357 109.371 22.9848C109.26 23.1918 109.145 23.3843 109.026 23.5624C108.907 23.7405 108.767 23.9443 108.608 24.1739L103.317 21.3462L103.543 20.9228L105.295 20.6983L107.61 21.935C107.811 21.5586 107.932 21.2303 107.973 20.9498C108.019 20.66 107.964 20.4008 107.808 20.1723C107.657 19.9344 107.379 19.7073 106.975 19.4912C106.617 19.3001 106.297 19.208 106.016 19.2146C105.739 19.2119 105.468 19.3334 105.204 19.5792C104.949 19.83 104.671 20.2376 104.369 20.8021C104.108 21.2913 103.932 21.7112 103.841 22.0619C103.756 22.4032 103.75 22.6965 103.824 22.9419C103.908 23.1923 104.072 23.4186 104.314 23.6208C104.566 23.8281 104.89 24.0373 105.285 24.2484C105.614 24.4244 105.949 24.579 106.289 24.7123C106.634 24.8362 107.021 24.9158 107.449 24.9513L107.656 25.2432L106.887 26.6826C106.568 26.6454 106.222 26.5692 105.848 26.454C105.474 26.3389 105.024 26.1406 104.497 25.8591C103.942 25.5625 103.443 25.2293 102.999 24.8593C102.566 24.4945 102.226 24.0772 101.981 23.6077C101.751 23.1338 101.653 22.5919 101.689 21.9821C101.739 21.3678 101.97 20.675 102.382 19.9036Z" fill="black"/>
</svg>
